<svg width="391" height="392" viewBox="0 0 391 392" fill="none" xmlns="http://www.w3.org/2000/svg">
<path d="M119.16 84.5162C127.623 87.9195 136.462 87.523 144.48 84.9471L182.299 144.131C176.145 149.71 171.049 156.502 167.758 164.687C163.235 175.934 162.726 187.804 165.354 198.733L78.3472 235.863C74.4065 230.762 69.6151 226.269 63.1959 223.687C43.9644 215.954 22.1461 225.258 14.4125 244.489C6.67903 263.721 15.9824 285.539 35.2139 293.273C54.4454 301.006 76.2637 291.703 83.9972 272.471C86.5786 266.052 86.6533 259.483 85.7005 253.108L172.707 215.978C178.816 225.538 187.679 233.326 198.96 237.862C218.87 245.869 240.547 241.439 255.96 228.539L292.222 259.38C290.778 267.873 295.013 276.487 303.337 279.835C312.948 283.7 323.864 279.045 327.729 269.434C331.594 259.822 326.939 248.907 317.328 245.042C312.944 243.279 308.329 243.474 304.186 244.931L268.12 214.281C269.582 211.827 271.044 209.373 272.135 206.659C283.72 177.851 269.741 145.068 240.933 133.484C226.599 127.72 211.241 128.294 198.033 133.876L160.456 75.0722C163.508 71.8031 166.18 68.0981 167.943 63.7142C175.663 44.5173 166.373 22.6641 147.142 14.9307C127.91 7.19723 106.078 16.5357 98.3584 35.7326C90.6389 54.9295 99.9283 76.7828 119.16 84.5162Z" fill="url(#paint0_linear)"/>
<defs>
<linearGradient id="paint0_linear" x1="305.79" y1="259.875" x2="132.074" y2="44.0956" gradientUnits="userSpaceOnUse">
<stop stop-color="#ED773A"/>
<stop offset="0.47223" stop-color="#DB844D"/>
<stop offset="1" stop-color="#F4BF55"/>
</linearGradient>
</defs>
</svg>
